<svg xmlns="http://www.w3.org/2000/svg" width="64" height="64" viewBox="0 0 64 64">
  <defs>
    <linearGradient id="p" x1="0" y1="0" x2="1" y2="1">
      <stop offset="0" stop-color="#fff7fb"/>
      <stop offset="0.55" stop-color="#ffd0e3"/>
      <stop offset="1" stop-color="#ff9dc6"/>
    </linearGradient>
    <filter id="s" x="-30%" y="-30%" width="160%" height="160%">
      <feGaussianBlur stdDeviation="1.4" result="b"/>
      <feColorMatrix in="b" type="matrix" values="1 0 0 0 0  0 1 0 0 0  0 0 1 0 0  0 0 0 0.35 0" result="bb"/>
      <feMerge>
        <feMergeNode in="bb"/>
        <feMergeNode in="SourceGraphic"/>
      </feMerge>
    </filter>
  </defs>

  <path filter="url(#s)" d="M32 10c7 0 12 6 12 13c0 11-12 23-12 23S20 34 20 23c0-7 5-13 12-13z" fill="url(#p)"/>
  <path d="M30 14c-3 2-5 6-5 10c0 8 7 17 7 17s-2-10-2-17c0-4 0-7 2-10z" fill="rgba(255,255,255,0.35)"/>
  <circle cx="36" cy="20" r="2" fill="rgba(255,255,255,0.55)"/>
</svg>
